<svg width="24" height="25" viewBox="0 0 24 25" fill="none" xmlns="http://www.w3.org/2000/svg">
<g clip-path="url(#clip0_1378_2425)">
<path d="M4.30664 9.51796V19.9114C4.30664 20.1497 4.49975 20.3428 4.73795 20.3428H8.90056C9.13877 20.3428 9.33187 20.1497 9.33187 19.9114V16.9186C9.33187 16.6804 9.52498 16.4873 9.76318 16.4873H14.1014C14.3396 16.4873 14.5327 16.6804 14.5327 16.9186V19.9114C14.5327 20.1497 14.7258 20.3428 14.9641 20.3428H19.263C19.5012 20.3428 19.6943 20.1497 19.6943 19.9114V9.51538C19.6943 9.37317 19.6242 9.24009 19.5069 9.15966L12.3191 4.23102C12.1733 4.13105 11.9813 4.13016 11.8346 4.22876L4.49736 9.15998C4.37815 9.2401 4.30664 9.37432 4.30664 9.51796Z" stroke="#727883" stroke-width="2"/>
</g>
<defs>
<clipPath id="clip0_1378_2425">
<rect width="24" height="24" fill="white" transform="translate(0 0.204102)"/>
</clipPath>
</defs>
</svg>
