<svg width="25" height="25" viewBox="0 0 25 25" fill="none" xmlns="http://www.w3.org/2000/svg">
<g clip-path="url(#clip0_1481_3797)">
<path d="M4.93164 9.81386V20.2073C4.93164 20.4456 5.12475 20.6387 5.36295 20.6387H9.52556C9.76377 20.6387 9.95687 20.4456 9.95687 20.2073V17.2145C9.95687 16.9763 10.15 16.7832 10.3882 16.7832H14.7264C14.9646 16.7832 15.1577 16.9763 15.1577 17.2145V20.2073C15.1577 20.4456 15.3508 20.6387 15.5891 20.6387H19.888C20.1262 20.6387 20.3193 20.4456 20.3193 20.2073V9.81128C20.3193 9.66906 20.2492 9.53599 20.1319 9.45556L12.9441 4.52691C12.7983 4.42695 12.6063 4.42606 12.4596 4.52466L5.12236 9.45588C5.00315 9.536 4.93164 9.67022 4.93164 9.81386Z" fill="#39322C" stroke="#39322C" stroke-width="2"/>
</g>
<defs>
<clipPath id="clip0_1481_3797">
<rect width="24" height="24" fill="white" transform="translate(0.625 0.5)"/>
</clipPath>
</defs>
</svg>
