<svg width="25" height="25" viewBox="0 0 25 25" fill="none" xmlns="http://www.w3.org/2000/svg">
<g clip-path="url(#clip0_1481_691)">
<circle cx="12.6846" cy="7.65724" r="3.11622" fill="#39322C" stroke="#39322C" stroke-width="2"/>
<mask id="path-2-inside-1_1481_691" fill="white">
<path d="M12.6838 12.541C17.3271 12.5412 21.1527 16.0346 21.6789 20.5366C21.7433 21.0876 21.2888 21.541 20.734 21.541H4.63259C4.07781 21.541 3.62332 21.0876 3.68774 20.5366C4.21406 16.0346 8.0404 12.541 12.6838 12.541Z"/>
</mask>
<path d="M12.6838 12.541C17.3271 12.5412 21.1527 16.0346 21.6789 20.5366C21.7433 21.0876 21.2888 21.541 20.734 21.541H4.63259C4.07781 21.541 3.62332 21.0876 3.68774 20.5366C4.21406 16.0346 8.0404 12.541 12.6838 12.541Z" fill="#39322C"/>
<path d="M12.6838 12.541L12.6839 10.541H12.6838V12.541ZM21.6789 20.5366L19.6924 20.7688L21.6789 20.5366ZM12.6838 12.541L12.6837 14.541C16.3 14.5411 19.2826 17.2625 19.6924 20.7688L21.6789 20.5366L23.6654 20.3044C23.0228 14.8068 18.3541 10.5412 12.6839 10.541L12.6838 12.541ZM20.734 21.541V19.541H4.63259V21.541V23.541H20.734V21.541ZM3.68774 20.5366L5.67421 20.7688C6.08412 17.2626 9.06725 14.541 12.6838 14.541V12.541V10.541C7.01354 10.541 2.344 14.8065 1.70127 20.3044L3.68774 20.5366ZM4.63259 21.541V19.541C5.1206 19.541 5.76601 19.9836 5.67421 20.7688L3.68774 20.5366L1.70127 20.3044C1.48064 22.1916 3.03501 23.541 4.63259 23.541V21.541ZM21.6789 20.5366L19.6924 20.7688C19.6006 19.9836 20.246 19.541 20.734 19.541V21.541V23.541C22.3316 23.541 23.886 22.1916 23.6654 20.3044L21.6789 20.5366Z" fill="#39322C" mask="url(#path-2-inside-1_1481_691)"/>
</g>
<defs>
<clipPath id="clip0_1481_691">
<rect width="24" height="24" fill="white" transform="translate(0.625 0.541016)"/>
</clipPath>
</defs>
</svg>
