<svg width="24" height="25" viewBox="0 0 24 25" fill="none" xmlns="http://www.w3.org/2000/svg">
<g clip-path="url(#clip0_1378_2428)">
<circle cx="12.0596" cy="7.32032" r="3.11622" stroke="#727883" stroke-width="2"/>
<mask id="path-2-inside-1_1378_2428" fill="white">
<path d="M12.0586 12.2041C16.7019 12.2042 20.5275 15.6977 21.0537 20.1997C21.1181 20.7507 20.6636 21.2041 20.1088 21.2041H4.00739C3.4526 21.2041 2.99812 20.7507 3.06254 20.1997C3.58885 15.6976 7.41519 12.2041 12.0586 12.2041Z"/>
</mask>
<path d="M12.0586 12.2041L12.0587 10.2041H12.0586V12.2041ZM21.0537 20.1997L19.0672 20.4319L21.0537 20.1997ZM12.0586 12.2041L12.0585 14.2041C15.6748 14.2042 18.6574 16.9256 19.0672 20.4319L21.0537 20.1997L23.0402 19.9675C22.3976 14.4699 17.7289 10.2043 12.0587 10.2041L12.0586 12.2041ZM20.1088 21.2041V19.2041H4.00739V21.2041V23.2041H20.1088V21.2041ZM3.06254 20.1997L5.04901 20.4319C5.45891 16.9256 8.44204 14.2041 12.0586 14.2041V12.2041V10.2041C6.38834 10.2041 1.7188 14.4696 1.07607 19.9674L3.06254 20.1997ZM4.00739 21.2041V19.2041C4.4954 19.2041 5.1408 19.6467 5.04901 20.4319L3.06254 20.1997L1.07607 19.9674C0.855435 21.8547 2.40981 23.2041 4.00739 23.2041V21.2041ZM21.0537 20.1997L19.0672 20.4319C18.9754 19.6467 19.6208 19.2041 20.1088 19.2041V21.2041V23.2041C21.7064 23.2041 23.2608 21.8547 23.0402 19.9675L21.0537 20.1997Z" fill="#727883" mask="url(#path-2-inside-1_1378_2428)"/>
</g>
<defs>
<clipPath id="clip0_1378_2428">
<rect width="24" height="24" fill="white" transform="translate(0 0.204102)"/>
</clipPath>
</defs>
</svg>
